<svg width="103" height="21" viewBox="0 0 103 21" fill="none" xmlns="http://www.w3.org/2000/svg">
<path d="M14.1524 0.203783C14.6299 0.261081 15.0023 0.413874 15.2697 0.662163C15.5562 0.891351 15.6995 1.27333 15.6995 1.80811C15.6995 2.36198 15.5371 2.77261 15.2124 3.04C14.9068 3.30739 14.4676 3.42198 13.8946 3.38378C12.3094 3.28829 11.0488 3.23099 10.113 3.21189C9.96018 5.1791 9.83604 7.54739 9.74054 10.3168C9.66414 13.449 9.62595 16.2184 9.62595 18.6249C9.62595 19.236 9.5018 19.6658 9.25351 19.9141C9.02432 20.1623 8.5755 20.2865 7.90703 20.2865C7.21946 20.2865 6.72288 20.1528 6.4173 19.8854C6.11171 19.618 5.95892 19.1596 5.95892 18.5103C5.95892 16.1993 6.03532 13.4681 6.18811 10.3168L6.4173 6.1627C6.4364 5.37964 6.48414 4.40559 6.56054 3.24054C5.77748 3.25964 4.73658 3.31694 3.43784 3.41243L2.75027 3.46973L2.46378 3.49838C1.98631 3.49838 1.60432 3.34559 1.31784 3.04C1.05045 2.73441 0.916757 2.33333 0.916757 1.83676C0.916757 0.977298 1.38468 0.480721 2.32054 0.347027C3.81027 0.136937 5.93027 0.0318921 8.68054 0.0318921C11.1634 0.0318921 12.9874 0.0891892 14.1524 0.203783ZM25.299 20.0573C22.9689 20.0573 21.0876 19.4461 19.6552 18.2238C18.2419 17.0014 17.5352 15.2157 17.5352 12.8665C17.5352 11.3577 17.8408 10.0303 18.452 8.88432C19.0631 7.71928 19.9417 6.81207 21.0876 6.1627C22.2336 5.51333 23.5801 5.18865 25.1271 5.18865C26.655 5.18865 28.0111 5.51333 29.1952 6.1627C30.3985 6.81207 31.3248 7.72883 31.9741 8.91297C32.6426 10.078 32.9768 11.4341 32.9768 12.9811C32.9768 15.2539 32.2797 17.0014 30.8855 18.2238C29.4912 19.4461 27.6291 20.0573 25.299 20.0573ZM25.2417 17.3357C26.5404 17.3357 27.5622 16.9728 28.3071 16.247C29.0711 15.5022 29.453 14.404 29.453 12.9524C29.453 11.5009 29.0806 10.2977 28.3358 9.3427C27.5909 8.38775 26.5595 7.91027 25.2417 7.91027C23.9621 7.91027 22.9403 8.3591 22.1763 9.25676C21.4123 10.1544 21.0303 11.3577 21.0303 12.8665C21.0303 14.3753 21.4123 15.5022 22.1763 16.247C22.9594 16.9728 23.9812 17.3357 25.2417 17.3357ZM49.9243 5.50378C53.2666 5.50378 54.9378 7.80522 54.9378 12.4081L54.9092 18.6822C54.9092 19.0641 54.7564 19.3793 54.4508 19.6276C54.1643 19.8759 53.7823 20 53.3048 20C52.7892 20 52.369 19.8759 52.0443 19.6276C51.7196 19.3793 51.5573 19.0355 51.5573 18.5962V12.5514C51.5573 10.9661 51.4045 9.82973 51.0989 9.14216C50.8124 8.4355 50.3158 8.08216 49.6092 8.08216C48.998 8.08216 48.511 8.49279 48.1481 9.31405C47.7852 10.1162 47.5942 11.1953 47.5751 12.5514V14.6141V18.5962C47.5751 19.4939 47.0308 19.9427 45.9421 19.9427C44.7771 19.9427 44.1946 19.4748 44.1946 18.5389L44.2232 12.5514C44.2041 11.1953 44.0131 10.1353 43.6502 9.37135C43.2874 8.60739 42.7717 8.22541 42.1032 8.22541C41.6257 8.22541 41.1769 8.51189 40.7567 9.08487C40.3556 9.65784 40.0405 10.5173 39.8113 11.6632C39.6585 12.4081 39.5821 13.258 39.5821 14.213L39.6108 16.7914V18.7968C39.6108 19.1787 39.4389 19.4748 39.0951 19.6849C38.7704 19.8759 38.3693 19.9714 37.8919 19.9714C37.4526 19.9523 37.0802 19.8377 36.7746 19.6276C36.469 19.4175 36.3162 19.131 36.3162 18.7681L36.2875 9.51459C36.2875 9.05622 36.2493 8.72198 36.1729 8.51189C36.0965 8.3018 35.9724 8.10126 35.8005 7.91027C35.7623 7.87207 35.6955 7.81477 35.6 7.73838C35.5236 7.66198 35.4663 7.58559 35.4281 7.50919C35.3899 7.43279 35.3708 7.34685 35.3708 7.25135C35.3708 6.81207 35.5331 6.45874 35.8578 6.19135C36.1825 5.92396 36.5358 5.79027 36.9178 5.79027C37.2807 5.79027 37.6722 6.05766 38.0924 6.59243C38.4362 7.06991 38.6081 7.56649 38.6081 8.08216V8.2827C38.9519 7.48054 39.4198 6.83117 40.0119 6.33459C40.623 5.83802 41.3775 5.58973 42.2751 5.58973C43.2301 5.58973 43.9845 5.80937 44.5384 6.24865C45.1113 6.66883 45.5411 7.27045 45.8275 8.05351C46.2095 7.23225 46.7443 6.60198 47.4319 6.1627C48.1385 5.72342 48.9693 5.50378 49.9243 5.50378ZM71.9529 17.2497C72.2776 17.307 72.5258 17.4312 72.6977 17.6222C72.8887 17.7941 72.9842 18.1092 72.9842 18.5676C72.9842 18.9686 72.8792 19.3029 72.6691 19.5703C72.459 19.8377 72.1821 19.9714 71.8383 19.9714C71.017 19.9714 70.3963 19.8663 69.9761 19.6562C69.5559 19.4461 69.1835 19.0546 68.8588 18.4816C68.0567 19.6849 66.6051 20.2865 64.5042 20.2865C62.3078 20.2865 60.6653 19.6467 59.5767 18.367C58.488 17.0683 57.9437 15.3685 57.9437 13.2676C57.9437 11.8733 58.2206 10.6128 58.7745 9.48595C59.3475 8.3591 60.1592 7.47099 61.2096 6.82162C62.2601 6.17225 63.4729 5.84757 64.848 5.84757C65.6311 5.84757 66.3377 6.00991 66.968 6.33459C67.5983 6.64018 68.0757 7.05081 68.4004 7.56649L68.4864 6.96487C68.5055 6.69748 68.6296 6.46829 68.8588 6.2773C69.088 6.08631 69.4509 5.99081 69.9475 5.99081C70.5204 5.99081 70.9311 6.1245 71.1794 6.39189C71.4467 6.65928 71.5518 6.99351 71.4945 7.39459C71.3799 8.00577 71.2557 9.08486 71.1221 10.6319C71.0648 11.3959 71.0361 12.3795 71.0361 13.5827V14.9292C71.0361 15.7314 71.0839 16.3139 71.1794 16.6768C71.2748 17.0205 71.5327 17.2115 71.9529 17.2497ZM67.6556 14.9005C67.6747 14.0793 67.6842 12.8856 67.6842 11.3195C67.6842 10.4409 67.3977 9.76288 66.8248 9.28541C66.2709 8.80793 65.6311 8.56919 64.9053 8.56919C63.8548 8.56919 63.0145 9.02757 62.3842 9.94432C61.7539 10.8611 61.4388 11.9593 61.4388 13.2389C61.4388 14.4804 61.7157 15.5117 62.2696 16.333C62.8235 17.1542 63.6352 17.5649 64.7048 17.5649C65.5833 17.5649 66.29 17.3357 66.8248 16.8773C67.3595 16.4189 67.6365 15.76 67.6556 14.9005ZM84.4204 14.6427C84.9552 14.6427 85.3372 14.7573 85.5663 14.9865C85.8146 15.2157 85.9388 15.5786 85.9388 16.0751C85.9388 17.2402 85.5568 18.1951 84.7928 18.94C84.048 19.6658 83.093 20.0286 81.928 20.0286C80.3427 20.0286 79.1872 19.3793 78.4615 18.0805C77.7548 16.7627 77.4015 14.6809 77.4015 11.8351C77.4015 11.2431 77.4206 10.4314 77.4588 9.4L76.4274 9.3427C75.5107 9.3045 75.0523 8.85568 75.0523 7.99622C75.0523 7.51874 75.1764 7.17495 75.4247 6.96487C75.673 6.73568 76.0836 6.63063 76.6566 6.64973L77.688 6.70703C77.8217 5.35099 78.0413 3.79441 78.3469 2.0373C78.4997 1.21604 79.0631 0.805406 80.0372 0.805406C80.6292 0.805406 81.0781 0.958198 81.3836 1.26378C81.7083 1.56937 81.8325 1.93225 81.7561 2.35243C81.4505 4.41514 81.2499 5.92396 81.1545 6.87892L82.902 6.90757C83.7424 6.92667 84.1626 7.3564 84.1626 8.19676C84.1626 8.63604 84.048 8.96072 83.8188 9.17081C83.5896 9.3809 83.1981 9.48595 82.6442 9.48595H80.9253C80.8871 10.4791 80.868 11.2622 80.868 11.8351C80.868 13.8596 80.9635 15.273 81.1545 16.0751C81.3454 16.8773 81.6797 17.2784 82.1572 17.2784C82.4627 17.2784 82.6824 17.1733 82.8161 16.9632C82.9498 16.7341 83.0262 16.3616 83.0453 15.8459C83.0644 15.4258 83.179 15.1202 83.389 14.9292C83.5991 14.7382 83.9429 14.6427 84.4204 14.6427ZM96.148 20.2292C94.4673 20.2292 93.0348 19.9045 91.8507 19.2551C90.6857 18.5867 89.8071 17.689 89.215 16.5622C88.623 15.4162 88.3269 14.1366 88.3269 12.7232C88.3269 11.3099 88.6516 10.0398 89.301 8.91297C89.9694 7.76703 90.8766 6.87892 92.0226 6.24865C93.1876 5.59928 94.4959 5.2746 95.9475 5.2746C97.2653 5.2746 98.4494 5.53243 99.4999 6.04811C100.55 6.56378 101.381 7.2991 101.992 8.25405C102.603 9.20901 102.909 10.3168 102.909 11.5773C102.909 12.3222 102.785 12.8569 102.537 13.1816C102.307 13.4872 101.868 13.64 101.219 13.64L91.3923 13.7259C91.3923 14.2607 91.5738 14.8146 91.9366 15.3876C92.2995 15.9605 92.8343 16.4476 93.541 16.8486C94.2476 17.2306 95.0784 17.4216 96.0334 17.4216C96.6828 17.4216 97.2271 17.3452 97.6664 17.1924C98.1248 17.0205 98.4972 16.82 98.7837 16.5908C99.0702 16.3616 99.4044 16.0465 99.7864 15.6454C100.073 15.3589 100.388 15.2157 100.732 15.2157C101.095 15.2157 101.438 15.3589 101.763 15.6454C102.107 15.9319 102.279 16.2566 102.279 16.6195C102.279 16.8868 102.174 17.1829 101.964 17.5076C101.505 18.1951 100.808 18.8254 99.8723 19.3984C98.9556 19.9523 97.7141 20.2292 96.148 20.2292ZM99.6718 11.3481C99.8246 11.3481 99.9201 11.3195 99.9583 11.2622C100.016 11.2049 100.044 11.0998 100.044 10.947C100.044 10.0685 99.6527 9.3427 98.8696 8.76973C98.0866 8.19676 97.1125 7.91027 95.9475 7.91027C95.0498 7.91027 94.2476 8.11081 93.541 8.51189C92.8534 8.89387 92.3186 9.37135 91.9366 9.94432C91.5738 10.4982 91.3923 10.9948 91.3923 11.4341L99.6718 11.3481Z" fill="white"/>
</svg>
